ply
format ascii 1.0
comment VCGLIB generated
element vertex 354
property float x
property float y
property float z
property float nx
property float ny
property float nz
property int flags
property uchar red
property uchar green
property uchar blue
property uchar alpha
element face 689
property list uchar int vertex_indices
property int flags
end_header
-1.12147 0.525752 0.328317 -6.08375 1.17122 0.0525005 0 192 192 192 255 
-0.696892 0.795902 0.460002 2.20373 4.58308 0.998633 0 192 192 192 255 
-0.501082 0.867167 0.138267 1.19132 3.58307 4.68082 0 192 192 192 255 
-0.769327 0.938282 -0.252618 1.92798 3.73752 2.57497 0 192 192 192 255 
0.939248 -0.424018 0.307302 4.14772 3.06243 2.09505 0 192 192 192 255 
-0.821557 0.328457 0.828717 1.0363 0.156949 4.29234 0 192 192 192 255 
0.784388 -0.881188 0.447477 2.43982 -4.06024 3.72537 0 192 192 192 255 
0.592253 0.312302 0.416562 2.98752 4.53854 2.51906 0 192 192 192 255 
-0.226462 -0.724138 0.570777 -0.988952 1.16735 4.24323 0 192 192 192 255 
0.177488 -0.631633 0.851592 -0.48907 -1.68785 5.77286 0 192 192 192 255 
-0.361717 -0.656278 0.621732 -0.339534 -0.236155 5.91862 0 192 192 192 255 
0.298988 -0.588013 0.851967 1.19177 -1.00402 5.92929 0 192 192 192 255 
0.125723 0.291152 0.575727 -0.670695 3.92021 4.41752 0 192 192 192 255 
-0.295432 1.02209 0.021477 1.45666 1.98066 4.21181 0 192 192 192 255 
-0.290542 -0.539293 0.632637 -0.14015 -1.50778 5.96934 0 192 192 192 255 
-0.397762 -0.140683 -0.320253 -1.56607 0.325598 -5.90028 0 192 192 192 255 
-0.074047 0.385127 0.249927 -1.3533 6.0409 0.582829 0 192 192 192 255 
-0.219247 -0.606808 0.584757 -1.0743 -1.5008 4.69718 0 192 192 192 255 
0.882248 -0.032668 0.276177 5.76979 1.92539 0.729754 0 192 192 192 255 
-0.118747 -0.292678 0.829257 -3.38539 -0.090451 4.14875 0 192 192 192 255 
-0.422197 0.300062 0.445092 2.32653 3.52236 4.233 0 192 192 192 255 
-0.665482 0.813512 0.334647 1.8463 4.56969 2.05196 0 192 192 192 255 
0.381218 0.420842 0.382092 1.10955 5.35316 2.20068 0 192 192 192 255 
-0.157912 0.362522 0.082617 -0.201926 6.13914 -0.767501 0 192 192 192 255 
-0.603037 0.812987 0.198327 0.611415 5.21336 2.83425 0 192 192 192 255 
-0.338887 -0.261358 0.671592 -0.558652 -0.731082 6.18032 0 192 192 192 255 
-0.053827 -0.119308 0.816417 -2.24404 2.95675 3.77046 0 192 192 192 255 
-0.637297 -0.205063 0.707682 -0.66351 -0.203932 5.63545 0 192 192 192 255 
-0.766717 0.820187 0.361332 0.430966 5.93406 0.936909 0 192 192 192 255 
-0.154492 -0.161728 0.729927 -3.11198 1.65433 4.85685 0 192 192 192 255 
0.182753 -0.117148 0.858222 0.0766466 2.83142 4.90786 0 192 192 192 255 
-0.221422 0.221597 0.507522 -0.824615 4.37192 4.37637 0 192 192 192 255 
0.215558 0.454652 0.262722 -0.419421 6.01936 0.401291 0 192 192 192 255 
-0.410617 -0.149323 0.671097 0.106463 0.569782 6.19091 0 192 192 192 255 
-0.788407 0.706622 -0.487398 1.4331 -4.62309 -0.937473 0 192 192 192 255 
0.300233 -0.018403 0.753312 0.626547 3.7289 4.86614 0 192 192 192 255 
-0.991312 0.703202 0.575607 -2.79353 4.32132 2.72681 0 192 192 192 255 
-0.235147 -0.047743 0.679167 -1.15665 1.90757 5.77671 0 192 192 192 255 
0.003563 0.170117 0.623607 -0.99371 2.88694 5.30554 0 192 192 192 255 
0.598418 0.080117 0.621222 2.32991 2.86062 4.87586 0 192 192 192 255 
-0.740407 0.830972 -0.131388 3.72405 3.17624 1.54753 0 192 192 192 255 
-0.640117 -0.015658 0.661587 -0.371811 1.67002 5.90887 0 192 192 192 255 
0.034433 0.004352 0.672027 -0.877963 3.07572 5.03098 0 192 192 192 255 
-0.309082 0.090797 0.596892 -0.507808 3.06746 5.40572 0 192 192 192 255 
0.256253 0.236462 0.611862 0.401083 3.06835 5.25945 0 192 192 192 255 
-0.503587 0.247997 0.492762 2.06584 1.46519 4.97122 0 192 192 192 255 
0.360608 -0.904873 0.699372 1.22119 -2.56751 5.55777 0 192 192 192 255 
0.095768 -1.0047 0.749157 0.804919 -0.828866 3.01679 0 192 192 192 255 
-0.074617 -0.932578 0.821457 0.304951 -0.95431 4.73246 0 192 192 192 255 
0.075023 -0.823003 0.744582 0.429649 -0.733431 5.89826 0 192 192 192 255 
0.502643 -0.934873 0.648642 2.75181 -3.13451 3.92091 0 192 192 192 255 
-0.760477 0.477497 0.686622 4.16441 2.00104 4.16379 0 192 192 192 255 
0.965903 -0.614743 0.478857 1.97872 0.639079 5.10652 0 192 192 192 255 
-0.432037 0.782102 0.139392 3.91199 -0.421589 3.67067 0 192 192 192 255 
-0.176377 0.871862 0.022167 1.62982 -0.0200238 2.08795 0 192 192 192 255 
0.447473 0.281327 0.547362 1.49331 3.92858 4.28794 0 192 192 192 255 
0.526043 -0.729763 0.715017 3.01311 -1.66904 5.10909 0 192 192 192 255 
-0.425257 0.708707 -0.030933 0.934483 -3.69906 -2.07087 0 192 192 192 255 
0.209738 0.086297 0.670017 -0.301253 2.74016 5.5993 0 192 192 192 255 
-0.023782 1.16156 -0.255078 3.38793 2.90911 3.31923 0 192 192 192 255 
0.061283 0.938042 -0.197928 1.24602 -0.372286 0.20952 0 192 192 192 255 
1.08521 -0.630103 0.397362 4.24997 -0.304693 3.54767 0 192 192 192 255 
-0.277342 0.903197 0.001047 2.47546 1.45984 5.19993 0 192 192 192 255 
-0.570937 0.392537 0.559527 3.79424 1.54993 4.44202 0 192 192 192 255 
-0.765067 0.129542 0.608397 1.49144 -1.58308 4.87384 0 192 192 192 255 
0.342758 -0.712573 0.808917 1.40833 -2.17828 5.4204 0 192 192 192 255 
-0.677437 0.528422 0.549747 3.88934 1.56129 4.34921 0 192 192 192 255 
-0.039997 0.957527 -0.147918 3.32351 1.20987 4.63611 0 192 192 192 255 
0.486773 -0.430798 0.803817 2.65632 -0.659859 5.54083 0 192 192 192 255 
0.807053 -0.747343 0.495462 2.66392 -1.64499 5.36 0 192 192 192 255 
0.474518 -0.183733 0.791727 2.2536 1.72179 5.44985 0 192 192 192 255 
-0.162412 1.01309 -0.129378 3.31113 1.42875 4.58691 0 192 192 192 255 
0.633578 -0.590353 0.681327 3.496 -1.22794 5.01217 0 192 192 192 255 
0.789683 -0.503833 0.577077 4.53178 -0.567576 4.0571 0 192 192 192 255 
-0.779422 0.725147 0.616467 1.39293 3.26174 3.71043 0 192 192 192 255 
0.874343 -0.415348 0.448902 5.09641 0.651507 3.46645 0 192 192 192 255 
0.540098 -0.347848 0.792012 2.64482 -0.358399 5.14335 0 192 192 192 255 
0.907748 -0.258058 0.392667 5.63336 0.588183 2.07815 0 192 192 192 255 
0.739148 0.140672 0.480597 4.02767 2.98844 2.99327 0 192 192 192 255 
-0.677257 0.302657 0.665817 4.31275 -0.474932 4.01521 0 192 192 192 255 
0.296093 -0.260908 0.877872 1.26575 0.647144 5.824 0 192 192 192 255 
-0.321772 0.754187 0.038517 2.25365 -3.22563 1.76163 0 192 192 192 255 
0.685883 -0.298498 0.679212 3.9772 -0.0594417 4.80219 0 192 192 192 255 
0.738593 -0.111328 0.622722 4.00208 1.31358 4.19846 0 192 192 192 255 
0.874058 -0.116143 0.410577 5.48134 1.46804 2.28137 0 192 192 192 255 
-0.575482 0.675587 0.416532 4.8349 2.57906 2.26632 0 192 192 192 255 
-0.685777 0.824882 -0.391938 5.37922 -0.836709 -0.0265759 0 192 192 192 255 
0.614303 -0.852358 -0.158973 3.86614 -3.91413 -2.80689 0 192 192 192 255 
1.05325 -0.795298 0.106422 4.30391 -3.37206 -1.70574 0 192 192 192 255 
0.882098 -0.073783 0.017187 5.71267 1.64503 -1.39182 0 192 192 192 255 
1.136 -0.504703 0.275877 4.43353 2.09453 0.959164 0 192 192 192 255 
1.10329 -0.736858 0.298332 4.78632 -2.55037 1.3507 0 192 192 192 255 
1.14496 -0.613393 0.168627 5.46784 -0.416479 -0.999982 0 192 192 192 255 
0.769118 -0.785518 -0.079998 2.80313 -2.9837 -4.6441 0 192 192 192 255 
-0.500362 0.479057 0.408342 5.26516 2.33344 2.31558 0 192 192 192 255 
-0.964462 0.185177 -0.029013 -4.07605 -0.259287 -4.53211 0 192 192 192 255 
0.556283 -0.694408 -0.363168 3.11866 -1.65751 -4.83314 0 192 192 192 255 
-0.176212 1.19804 -0.100263 0.213248 1.92095 1.07237 0 192 192 192 255 
-1.15163 0.297887 0.491127 -5.74802 -1.6611 0.458459 0 192 192 192 255 
0.794378 0.052172 -0.084333 4.47654 2.64565 -2.83107 0 192 192 192 255 
-0.779167 0.213602 0.771282 2.22832 -2.56417 3.52908 0 192 192 192 255 
0.699038 -0.647518 -0.237933 4.3077 -1.65132 -4.12568 0 192 192 192 255 
0.787148 -0.455098 -0.191178 4.75304 -0.730363 -3.91549 0 192 192 192 255 
-0.509602 0.613067 0.197817 6.01087 0.350229 0.734368 0 192 192 192 255 
0.926873 -0.241558 0.140772 6.08578 1.09384 -0.443248 0 192 192 192 255 
0.878378 -0.226438 -0.085878 5.42246 0.514038 -2.57807 0 192 192 192 255 
-1.07588 0.633362 0.551997 -4.76636 2.67282 2.09465 0 192 192 192 255 
-0.709672 1.09902 -0.804153 4.08219 2.14781 -0.440725 0 192 192 192 255 
-0.855562 0.821912 0.247767 -0.836222 6.09696 -0.00437386 0 192 192 192 255 
-0.794542 0.814637 0.006627 1.51071 5.70687 0.177626 0 192 192 192 255 
-0.634882 0.701162 0.520182 3.93915 1.70155 3.16148 0 192 192 192 255 
-0.235717 0.344537 0.329847 0.0192004 5.78053 2.1781 0 192 192 192 255 
-1.093 0.126692 0.170637 -5.50571 -1.75617 -1.47603 0 192 192 192 255 
-0.423337 0.413702 0.072312 3.09325 3.12628 -1.44794 0 192 192 192 255 
-0.720892 0.998972 -0.595968 4.21455 2.85767 1.6839 0 192 192 192 255 
0.717818 0.250952 0.120342 4.37207 4.13091 -0.787156 0 192 192 192 255 
-0.839752 1.13412 -0.659868 0.801757 4.53975 2.56978 0 192 192 192 255 
1.09294 -0.442048 0.170622 2.29851 3.55422 -0.434714 0 192 192 192 255 
-1.09178 -0.084868 0.353592 -5.51121 0.832304 2.18036 0 192 192 192 255 
-0.466222 0.491372 0.244332 4.84671 3.57858 1.23654 0 192 192 192 255 
-0.914332 1.13514 -0.717813 -2.52197 1.20942 -0.524115 0 192 192 192 255 
-0.704062 0.948122 -0.500838 4.59691 2.89809 0.281324 0 192 192 192 255 
-0.351697 0.384902 0.276252 2.38394 5.2341 2.27731 0 192 192 192 255 
0.841913 0.071657 0.130167 5.42248 2.81347 -0.538641 0 192 192 192 255 
0.773453 0.170972 0.340467 4.84578 3.42672 1.17189 0 192 192 192 255 
-1.05434 0.770642 0.348507 -3.07799 4.58686 0.61623 0 192 192 192 255 
-0.311137 0.397037 0.136032 2.29583 5.70706 -0.146948 0 192 192 192 255 
-0.932182 0.773282 0.495927 -1.60629 5.29134 2.15601 0 192 192 192 255 
0.992828 -0.427063 0.165972 3.68029 4.44194 -0.952013 0 192 192 192 255 
-0.281917 0.008312 -0.305958 -1.03049 2.35575 -5.67979 0 192 192 192 255 
0.556073 0.359972 0.063447 2.77306 5.22918 -1.42878 0 192 192 192 255 
-0.692092 0.810722 0.129372 -0.753467 6.00461 -0.446446 0 192 192 192 255 
0.164633 0.415142 0.413547 -0.638373 5.36363 2.4852 0 192 192 192 255 
0.480353 0.419282 0.232977 2.10674 5.61418 0.188746 0 192 192 192 255 
-0.543742 0.702032 0.277452 4.98482 2.06073 2.71371 0 192 192 192 255 
1.06877 -0.463843 0.349767 2.22385 3.41743 2.47657 0 192 192 192 255 
0.627038 0.331397 0.258807 3.64316 4.88886 0.545938 0 192 192 192 255 
-0.732352 0.947972 -0.347088 4.45404 3.39008 1.44361 0 192 192 192 255 
-0.048247 0.324212 0.461847 -1.59601 4.97301 3.24524 0 192 192 192 255 
0.102038 0.409127 0.021447 -0.794316 5.73711 -1.84863 0 192 192 192 255 
-0.730942 -0.885838 0.505362 -4.31772 1.69503 -0.529392 0 192 192 192 255 
-0.259987 -0.970663 0.766797 -2.12604 -1.92864 2.4927 0 192 192 192 255 
-0.160552 -0.854188 0.799092 -1.42469 2.30435 4.53621 0 192 192 192 255 
-0.675667 0.779567 0.035832 0.314835 4.32155 -3.88847 0 192 192 192 255 
-0.436987 -0.798613 0.622632 -1.33649 1.87475 5.58971 0 192 192 192 255 
-0.926242 0.961967 -0.377718 -3.17545 1.59484 -0.331954 0 192 192 192 255 
-0.629317 -0.923548 0.708012 -1.04983 0.00608611 3.50607 0 192 192 192 255 
-0.359782 -0.853318 0.639912 -1.2457 0.464752 5.58376 0 192 192 192 255 
-0.759982 -0.935698 0.224892 -3.85617 0.271375 1.76077 0 192 192 192 255 
-0.553192 -0.829198 0.343212 -4.49459 2.67626 0.300719 0 192 192 192 255 
-0.054712 -0.767893 0.736212 -1.93044 1.51028 5.2984 0 192 192 192 255 
-0.162817 -0.157318 -0.458013 -2.43179 3.30838 -4.51994 0 192 192 192 255 
-1.15496 0.260897 0.622392 -4.40358 -1.44073 1.0357 0 192 192 192 255 
-0.915472 0.576797 0.738237 -0.0429537 2.71511 4.75538 0 192 192 192 255 
-0.534472 -0.584443 0.515922 -3.40307 -2.6364 3.96801 0 192 192 192 255 
-0.212962 -0.354733 0.644997 -2.0776 -0.791001 4.8044 0 192 192 192 255 
-1.1312 0.333317 0.677607 -4.55417 0.204508 2.91913 0 192 192 192 255 
-0.940747 -0.196363 0.569832 -3.74383 -0.37755 4.47572 0 192 192 192 255 
-1.01873 0.501287 0.747627 -2.36979 1.62557 4.40598 0 192 192 192 255 
-0.476302 -0.429823 0.641607 -0.784537 -1.8651 5.80592 0 192 192 192 255 
-1.05077 0.109427 0.318972 -5.4947 -1.33809 1.37157 0 192 192 192 255 
0.026198 -0.562033 0.825462 -2.40913 -1.33322 5.49459 0 192 192 192 255 
-0.550942 0.915257 0.079962 -2.69631 4.13614 1.02084 0 192 192 192 255 
0.080753 -0.288733 0.885027 -0.832509 0.160885 5.97711 0 192 192 192 255 
-0.579352 -0.075478 -0.297903 -1.29379 1.0284 -5.95046 0 192 192 192 255 
-0.989257 0.259967 0.771792 -2.16565 -1.76712 4.69238 0 192 192 192 255 
-0.917887 0.857942 -0.187023 -3.56444 1.86247 1.14099 0 192 192 192 255 
-0.119092 -0.480088 0.718092 -4.40028 -1.47661 3.97599 0 192 192 192 255 
-0.061927 -0.630133 0.729762 -4.36438 -0.711935 4.38433 0 192 192 192 255 
-0.874837 0.040907 0.582417 -2.60858 -1.60861 4.94356 0 192 192 192 255 
-0.825247 0.871682 -0.648318 -5.55237 -2.01147 -1.91226 0 192 192 192 255 
-0.559687 -0.766948 0.472977 -4.82879 3.09531 0.330718 0 192 192 192 255 
-0.636847 -0.807148 0.581322 -2.36904 4.52123 1.77622 0 192 192 192 255 
-1.13401 0.677177 0.324972 -4.95378 1.55877 -0.122601 0 192 192 192 255 
-0.704497 -0.826273 0.025482 -3.68574 4.25868 -1.20046 0 192 192 192 255 
-0.638587 -0.809713 0.138507 -4.77514 3.09815 1.8496 0 192 192 192 255 
-1.17899 0.278327 0.298032 -5.41036 -1.30447 -0.19833 0 192 192 192 255 
-0.330067 -0.817453 -0.288183 -3.64661 3.60397 -3.2404 0 192 192 192 255 
-0.618772 -0.724423 0.076617 -5.81623 0.877034 -0.308969 0 192 192 192 255 
-0.829672 1.06079 -0.766578 -4.91916 -2.04451 -3.2555 0 192 192 192 255 
-0.533602 -0.703303 0.325722 -4.17795 -0.579242 1.27471 0 192 192 192 255 
-0.230872 0.297497 -0.108813 0.399231 5.05497 -3.57316 0 192 192 192 255 
-0.192277 -0.705388 -0.314748 -4.92769 0.727633 -3.12256 0 192 192 192 255 
-0.244687 -0.708943 -0.179493 -2.67023 0.858619 -2.94523 0 192 192 192 255 
0.270518 0.002582 -0.318093 0.69965 2.85962 -5.38149 0 192 192 192 255 
-0.109462 -0.671668 -0.446028 -3.49208 -1.42695 -4.73867 0 192 192 192 255 
-0.588217 0.366647 -0.083598 0.334603 2.29896 -5.5873 0 192 192 192 255 
-1.06639 0.623042 0.127377 -5.35772 1.84693 -2.49326 0 192 192 192 255 
-0.752767 0.883487 -0.823038 0.156615 -1.32464 -1.94464 0 192 192 192 255 
-0.881527 0.599717 -0.083328 -3.87723 -1.15771 -4.43121 0 192 192 192 255 
-0.421102 1.04382 -0.065553 -2.8039 3.39386 -0.656106 0 192 192 192 255 
-0.941587 1.02632 -0.540963 -2.12188 0.776775 0.34432 0 192 192 192 255 
-0.792592 -0.163123 -0.240993 -2.54124 0.342873 -5.4999 0 192 192 192 255 
-1.10506 0.488507 0.096657 -5.18628 1.28289 -2.55341 0 192 192 192 255 
-0.872182 0.832982 -0.029418 -2.02859 4.49607 0.783308 0 192 192 192 255 
-0.884812 0.878372 -0.451038 -5.93494 -1.19637 -1.03082 0 192 192 192 255 
-0.901102 0.759317 -0.137718 -6.03815 -0.463515 -0.68727 0 192 192 192 255 
-0.841657 1.032 -0.398703 -0.544648 3.8907 0.76857 0 192 192 192 255 
-0.751042 0.208427 -0.139698 -1.97355 1.82253 -5.54768 0 192 192 192 255 
-0.229312 -0.398578 -0.455028 -3.87603 -0.710023 -3.7822 0 192 192 192 255 
-0.122932 -0.061933 -0.352353 -0.477729 3.3595 -4.69309 0 192 192 192 255 
-0.950647 0.645392 -0.024003 -4.83466 0.765286 -3.73412 0 192 192 192 255 
-0.993742 0.767642 0.104547 -3.52309 3.84259 -1.74724 0 192 192 192 255 
0.643868 0.250832 -0.050733 3.41549 4.00362 -2.89167 0 192 192 192 255 
-1.01105 -0.314248 0.433137 -4.69355 -2.55348 2.2757 0 192 192 192 255 
-1.09996 -0.193318 0.196002 -5.68473 -1.21383 -0.584396 0 192 192 192 255 
-0.954817 -0.258778 -0.126558 -4.22518 -1.20991 -3.87541 0 192 192 192 255 
-1.10405 -0.141493 0.335547 -5.48225 -0.531612 1.42035 0 192 192 192 255 
-1.03795 -0.026143 0.000927 -5.42639 0.679442 -2.60888 0 192 192 192 255 
-1.02112 -0.311578 0.010692 -5.10761 -2.11182 -1.92642 0 192 192 192 255 
-1.16939 0.403202 0.324807 -5.90226 1.27182 -0.0255423 0 192 192 192 255 
-1.08349 0.027017 0.188112 -6.0759 0.472372 -0.692112 0 192 192 192 255 
0.383828 0.239642 -0.230418 1.09314 3.34711 -4.6698 0 192 192 192 255 
-0.168607 -0.857068 -0.408738 -1.51467 1.10654 -5.68946 0 192 192 192 255 
0.942383 -0.590608 -0.030603 2.63363 2.24406 -5.19481 0 192 192 192 255 
-0.347497 0.187187 -0.230598 0.19101 3.30458 -5.26311 0 192 192 192 255 
0.398258 0.370592 -0.086643 1.18066 4.87377 -2.93735 0 192 192 192 255 
0.004853 1.23648 -0.350538 0.334004 0.694049 -0.427708 0 192 192 192 255 
-0.399772 -0.941593 -0.388998 -3.01573 0.531856 -2.1093 0 192 192 192 255 
-0.357112 0.377732 -0.033063 1.75852 5.26582 -2.57549 0 192 192 192 255 
-0.740167 1.06626 -0.887613 0.536332 0.031999 -2.27906 0 192 192 192 255 
0.022253 -0.117418 -0.509493 -0.441097 3.62157 -4.30432 0 192 192 192 255 
0.925958 -0.435973 0.068112 4.50356 2.14658 -2.80095 0 192 192 192 255 
-0.128362 0.157682 -0.262983 -0.48271 3.56412 -5.04706 0 192 192 192 255 
0.890903 -0.421018 -0.019983 5.46201 0.140681 -2.97101 0 192 192 192 255 
-0.690157 0.660647 -0.068133 4.1238 1.39966 -4.05482 0 192 192 192 255 
0.199373 -0.133618 -0.499158 1.09301 3.1273 -4.7835 0 192 192 192 255 
-0.441832 0.316067 -0.151728 0.176587 4.17733 -4.26134 0 192 192 192 255 
-0.510922 0.653672 0.033042 3.77384 -1.81458 -3.134 0 192 192 192 255 
1.03787 -0.661933 -0.021378 3.3679 -0.330582 -4.04501 0 192 192 192 255 
1.0777 -0.525013 0.050487 3.35751 2.28489 -3.29572 0 192 192 192 255 
0.104093 0.305027 -0.146313 -0.435677 4.76895 -3.97452 0 192 192 192 255 
0.222233 0.173312 -0.275508 0.186976 2.93446 -5.33069 0 192 192 192 255 
-0.516727 0.556412 0.061767 5.19699 1.60918 -2.1658 0 192 192 192 255 
0.132488 -0.013843 -0.348318 0.279645 3.66717 -4.83 0 192 192 192 255 
0.418718 -0.082153 -0.372393 1.68614 3.21395 -4.9956 0 192 192 192 255 
0.509213 0.008432 -0.295143 1.81058 2.48831 -5.40445 0 192 192 192 255 
-0.469672 0.140672 -0.256053 -0.52261 2.40525 -5.65514 0 192 192 192 255 
0.323888 0.445142 0.106617 0.647323 5.89131 -1.09169 0 192 192 192 255 
0.664238 0.031097 -0.214638 3.10989 2.58251 -4.61783 0 192 192 192 255 
0.546098 -0.238303 -0.380343 2.84282 1.28359 -5.35692 0 192 192 192 255 
-0.414472 -0.768793 -0.145713 -2.92953 1.71563 -4.85645 0 192 192 192 255 
-0.654037 0.159467 -0.216123 -1.77129 2.43781 -5.25255 0 192 192 192 255 
-0.113377 -0.976258 -0.409953 0.442973 -2.95822 -3.8164 0 192 192 192 255 
-0.124897 1.18245 -0.268878 -1.96763 3.1556 -2.05563 0 192 192 192 255 
0.509078 -0.927613 -0.281613 3.10827 -2.98411 -3.01337 0 192 192 192 255 
-0.835462 -0.928153 0.106707 -3.32451 0.689664 0.6451 0 192 192 192 255 
-0.573442 -0.243838 -0.311658 -0.760773 -0.958894 -5.82476 0 192 192 192 255 
0.816128 -0.946648 0.096267 2.48363 -5.04316 -1.92266 0 192 192 192 255 
-0.487927 -0.855838 -0.138438 -3.40496 1.30627 -4.99641 0 192 192 192 255 
0.925298 -0.818713 -0.027393 2.21832 -3.17424 -3.87613 0 192 192 192 255 
0.404573 -0.871348 -0.348828 1.89545 -2.4704 -5.39061 0 192 192 192 255 
0.195518 -0.908398 -0.363183 0.0690182 -3.3178 -5.10608 0 192 192 192 255 
0.582938 -0.838753 -0.254793 4.26347 -2.75377 -3.29949 0 192 192 192 255 
-0.029377 -0.812698 -0.419418 0.060387 -1.947 -5.9077 0 192 192 192 255 
-0.822247 1.17713 -0.835983 -0.477288 1.40665 -1.07539 0 192 192 192 255 
0.815183 -0.637423 -0.107433 3.76446 -0.860364 -4.77173 0 192 192 192 255 
0.020078 -0.637918 -0.515568 -0.616818 -1.37667 -5.60605 0 192 192 192 255 
-0.568717 0.807167 -0.024738 -3.27154 0.156688 -4.23345 0 192 192 192 255 
-0.583732 -0.770323 -0.053313 -4.21686 1.02304 -4.25111 0 192 192 192 255 
0.263513 -0.733558 -0.452538 1.12965 -2.06787 -5.64772 0 192 192 192 255 
-0.562372 -0.628573 -0.106143 -3.00874 -2.57445 -4.72797 0 192 192 192 255 
-0.404407 -0.634258 -0.162933 -1.77362 -1.7806 -5.71603 0 192 192 192 255 
-1.09186 0.302117 0.040497 -4.76278 -0.77308 -3.22527 0 192 192 192 255 
0.542183 -0.546073 -0.398223 3.02771 -0.647091 -5.26386 0 192 192 192 255 
-0.633997 0.444377 -0.081048 1.64261 1.21815 -5.82439 0 192 192 192 255 
-0.534097 -0.487858 -0.195258 -1.17547 -2.95613 -5.36757 0 192 192 192 255 
-0.050947 -0.389413 -0.566418 -1.46671 -0.4526 -5.39525 0 192 192 192 255 
0.095003 -0.548878 -0.519108 0.623513 -1.05064 -6.1121 0 192 192 192 255 
-0.674047 -0.578668 -0.067953 -2.90593 -4.32788 -3.21148 0 192 192 192 255 
-0.809317 0.438062 -0.106308 -0.374418 0.189887 -6.13681 0 192 192 192 255 
0.350648 -0.380398 -0.492903 2.0395 -0.215031 -5.79887 0 192 192 192 255 
-0.115102 -0.556513 -0.488898 -2.93283 -1.69773 -4.95079 0 192 192 192 255 
-0.287512 -0.334993 -0.321183 -4.01788 -1.73371 -3.82421 0 192 192 192 255 
-0.403162 -0.336733 -0.276063 -1.18783 -1.95628 -5.78831 0 192 192 192 255 
-0.387412 0.847757 -0.135483 -1.50453 -2.39222 -4.76291 0 192 192 192 255 
-0.227707 -0.286828 -0.457248 -4.07787 -0.0636748 -4.41677 0 192 192 192 255 
-0.061072 1.12391 -0.325143 -2.13044 -0.680716 -5.30644 0 192 192 192 255 
-0.986542 0.365522 -0.067128 -3.14898 0.0926521 -4.8861 0 192 192 192 255 
-0.319432 0.990962 -0.182013 -2.65306 0.934469 -4.88485 0 192 192 192 255 
-0.174172 0.019457 -0.332823 -1.05687 1.8727 -5.64681 0 192 192 192 255 
-0.897127 -0.446818 -0.049233 -3.76471 -3.75008 -2.57857 0 192 192 192 255 
0.768728 -0.230353 -0.244038 4.08608 0.693833 -4.25606 0 192 192 192 255 
0.020288 -0.305488 -0.572088 0.0160972 0.426336 -5.85825 0 192 192 192 255 
-0.927352 -0.073993 -0.157398 -3.68086 0.825309 -4.57733 0 192 192 192 255 
0.647603 -0.335683 -0.333318 3.52088 -0.0110814 -5.09804 0 192 192 192 255 
-0.730117 -0.390673 -0.239043 -1.939 -2.48011 -4.7051 0 192 192 192 255 
-0.126562 -0.241138 -0.543723 -2.12596 0.268113 -4.38894 0 192 192 192 255 
0.317303 -0.217918 -0.492348 2.10034 1.45485 -5.52014 0 192 192 192 255 
0.236708 -0.989848 -0.336123 -0.844407 -3.39543 -2.64954 0 192 192 192 255 
0.389798 -1.00672 -0.282108 1.10235 -4.32038 -2.07893 0 192 192 192 255 
-0.325807 -0.996973 -0.432798 -0.690751 -1.70581 -2.47056 0 192 192 192 255 
0.012473 -1.01469 -0.340548 0.771332 -4.0265 -1.47911 0 192 192 192 255 
0.130448 -0.967768 -0.216333 -0.255193 -6.08445 0.7531 0 192 192 192 255 
-0.425287 -1.0176 -0.209208 -2.01205 -3.17285 -1.21882 0 192 192 192 255 
0.267323 -0.986908 -0.212073 -1.00381 -6.12661 0.804734 0 192 192 192 255 
0.449063 -1.00162 -0.065298 0.854504 -5.83156 -0.74285 0 192 192 192 255 
0.189398 -0.936163 -0.073878 -0.81022 -5.95962 0.153869 0 192 192 192 255 
-0.247552 -0.989083 -0.264813 0.743187 -6.20049 0.403865 0 192 192 192 255 
-0.371467 -0.995953 -0.111843 0.8241 -4.6522 0.427961 0 192 192 192 255 
-0.070507 -0.942043 -0.184653 0.321216 -5.90221 1.24188 0 192 192 192 255 
-0.895672 0.172562 0.744192 -0.883616 -3.84236 3.852 0 192 192 192 255 
0.313373 -0.999628 0.067077 -1.02517 -4.61621 -0.433136 0 192 192 192 255 
-0.947857 -0.476668 0.242412 -4.37693 -3.91465 0.333567 0 192 192 192 255 
0.762458 -0.980878 0.144237 1.94799 -5.58481 -0.372591 0 192 192 192 255 
-1.05587 0.160847 0.655947 -1.61731 -3.77697 2.10832 0 192 192 192 255 
-0.490207 -1.01685 -0.123183 -1.23757 -3.98604 -2.25492 0 192 192 192 255 
0.566498 -0.995638 0.113412 0.276134 -4.26806 -0.0211317 0 192 192 192 255 
-0.766222 -0.926683 -0.063153 -2.46728 0.0779448 -2.6699 0 192 192 192 255 
-0.284947 -1.01752 0.160092 0.235634 -0.494695 -0.00406436 0 192 192 192 255 
0.152423 -0.949363 0.053607 -0.774987 -6.1764 -0.307053 0 192 192 192 255 
-0.189322 -0.949063 0.048897 0.258317 -3.42044 0.0887411 0 192 192 192 255 
0.972113 -0.882838 0.200427 3.29435 -4.86602 -0.0111396 0 192 192 192 255 
-0.794752 -1.01679 0.084387 -2.67282 -3.34402 -0.0169239 0 192 192 192 255 
-0.528952 -1.01904 0.086292 0.0613645 -3.25529 -0.00161805 0 192 192 192 255 
0.302588 -0.994243 0.329682 -1.22357 -4.38848 0.652715 0 192 192 192 255 
0.813743 -0.935413 0.324762 2.2297 -5.43961 1.69949 0 192 192 192 255 
-0.000292 -0.947653 0.358797 0.184716 -5.42222 0.244658 0 192 192 192 255 
-0.817987 0.685022 -0.355188 -1.16235 -3.9107 -1.41696 0 192 192 192 255 
-0.639742 -1.01656 0.264627 -1.25513 -3.77215 0.25273 0 192 192 192 255 
0.488123 -0.998098 0.505242 0.661279 -5.632 0.949039 0 192 192 192 255 
0.622388 -0.991663 0.330537 1.14324 -4.62073 0.888042 0 192 192 192 255 
0.954068 -0.816658 0.428742 2.71934 -3.10873 3.5558 0 192 192 192 255 
-0.163852 -0.961243 0.330507 1.22376 -3.63106 0.158545 0 192 192 192 255 
0.197048 -0.935758 0.484482 -0.276371 -3.21537 0.457076 0 192 192 192 255 
-0.730942 -0.989143 0.372312 -3.05653 -1.40822 0.0353854 0 192 192 192 255 
0.353873 -0.939538 0.488922 -1.02793 -4.07926 0.767889 0 192 192 192 255 
-0.256102 -1.00596 0.424752 1.87776 -4.08832 0.563945 0 192 192 192 255 
0.420503 -0.997603 0.653262 0.870056 -3.69781 2.23976 0 192 192 192 255 
-0.744997 -0.614473 0.118722 -2.59503 -5.32778 -1.01531 0 192 192 192 255 
-0.565882 -1.00857 0.440697 -0.259395 -4.34787 0.174326 0 192 192 192 255 
0.322463 -1.01158 0.631662 0.764477 -2.7924 1.42863 0 192 192 192 255 
-0.928837 -0.330298 0.531132 -3.90644 -2.54038 3.73315 0 192 192 192 255 
-0.747517 -0.398788 0.620157 -1.93502 -2.6278 4.9021 0 192 192 192 255 
-0.611002 -0.661768 0.179232 -3.55563 -1.68349 0.711873 0 192 192 192 255 
-0.113512 -0.940963 0.519537 0.527463 -3.02782 0.148027 0 192 192 192 255 
-0.782092 -0.595738 0.300042 -2.65692 -4.48878 1.19321 0 192 192 192 255 
-0.285007 -0.999253 0.537267 0.0985572 -4.47999 1.21713 0 192 192 192 255 
-0.665617 -1.00066 0.614862 -2.18744 -4.12234 1.65477 0 192 192 192 255 
-0.736327 -0.920383 0.602997 -3.43205 -0.209679 1.02537 0 192 192 192 255 
-0.861652 0.746507 -0.535113 -3.60028 -1.99832 -1.59317 0 192 192 192 255 
-0.818482 -0.480088 0.509697 -2.97973 -4.03099 3.05855 0 192 192 192 255 
-0.253927 -0.998668 0.638787 -2.30962 -2.89409 0.742013 0 192 192 192 255 
-1.01876 0.046907 0.427242 -5.4386 0.132442 2.94168 0 192 192 192 255 
-0.465862 -0.996583 0.657687 0.896221 -2.86464 3.09667 0 192 192 192 255 
-0.992332 0.108407 0.532032 -4.04361 -4.11333 2.12488 0 192 192 192 255 
0.038468 1.03934 -0.310203 1.87546 -0.531066 -1.24839 0 192 192 192 255 
-0.709657 0.855932 -0.669228 5.54827 -1.64369 -0.966996 0 192 192 192 255 
-0.686932 0.722672 -0.269718 4.17763 -1.5906 -0.297287 0 192 192 192 255 
-0.046252 0.887357 -0.172593 1.85833 -3.63817 -0.215722 0 192 192 192 255 
-0.755257 0.629942 -0.173358 3.16661 -3.38517 -2.51717 0 192 192 192 255 
-0.766792 0.765812 -0.665718 0.0922759 -2.73232 -1.58814 0 192 192 192 255 
-0.249742 0.779522 -0.067413 1.8334 -3.93678 -1.32609 0 192 192 192 255 
-0.231742 0.879032 -0.180273 -0.0566884 -3.45975 -4.10102 0 192 192 192 255 
3 211 160 112 0 
3 16 111 138 0 
3 118 343 160 0 
3 225 109 143 0 
3 188 220 107 0 
3 139 32 238 0 
3 197 137 121 0 
3 81 275 352 0 
3 255 116 107 0 
3 131 109 108 0 
3 10 159 154 0 
3 153 158 165 0 
3 32 133 238 0 
3 5 153 165 0 
3 3 40 348 0 
3 241 262 183 0 
3 177 241 183 0 
3 80 30 163 0 
3 157 27 169 0 
3 49 46 65 0 
3 205 207 211 0 
3 250 88 312 0 
3 303 205 209 0 
3 32 132 22 0 
3 27 41 169 0 
3 41 64 169 0 
3 144 171 172 0 
3 250 312 248 0 
3 275 353 352 0 
3 105 104 222 0 
3 70 35 30 0 
3 16 138 132 0 
3 105 99 89 0 
3 112 176 263 0 
3 80 70 30 0 
3 279 244 353 0 
3 65 9 49 0 
3 70 39 35 0 
3 54 349 67 0 
3 32 16 132 0 
3 138 111 31 0 
3 111 20 31 0 
3 43 64 41 0 
3 52 75 69 0 
3 344 144 146 0 
3 159 27 333 0 
3 35 39 58 0 
3 21 28 85 0 
3 81 53 57 0 
3 2 162 24 0 
3 159 33 27 0 
3 65 11 9 0 
3 200 129 280 0 
3 27 33 41 0 
3 33 43 41 0 
3 344 147 144 0 
3 44 39 55 0 
3 13 162 2 0 
3 102 285 282 0 
3 197 145 3 0 
3 145 166 3 0 
3 147 10 144 0 
3 10 14 159 0 
3 43 20 45 0 
3 14 25 159 0 
3 25 33 159 0 
3 140 339 172 0 
3 325 149 148 0 
3 25 37 33 0 
3 37 43 33 0 
3 31 20 43 0 
3 104 105 89 0 
3 155 25 14 0 
3 89 18 104 0 
3 100 5 165 0 
3 32 139 16 0 
3 8 10 147 0 
3 29 25 155 0 
3 40 194 109 0 
3 350 318 348 0 
3 14 167 155 0 
3 134 24 21 0 
3 8 17 10 0 
3 17 14 10 0 
3 29 37 25 0 
3 171 149 325 0 
3 17 167 14 0 
3 132 12 55 0 
3 38 43 37 0 
3 11 68 80 0 
3 38 31 43 0 
3 258 57 228 0 
3 75 52 4 0 
3 281 303 209 0 
3 38 138 31 0 
3 114 347 107 0 
3 120 191 116 0 
3 216 133 130 0 
3 42 38 37 0 
3 238 133 216 0 
3 16 23 111 0 
3 58 39 44 0 
3 217 244 59 0 
3 176 193 263 0 
3 38 12 138 0 
3 22 132 55 0 
3 163 30 26 0 
3 49 9 150 0 
3 349 60 67 0 
3 133 32 22 0 
3 150 9 161 0 
3 132 138 12 0 
3 161 9 19 0 
3 44 12 38 0 
3 9 11 80 0 
3 19 9 163 0 
3 58 44 38 0 
3 340 351 34 0 
3 58 38 42 0 
3 80 163 9 0 
3 56 65 46 0 
3 92 230 117 0 
3 68 70 80 0 
3 150 142 49 0 
3 5 51 153 0 
3 79 5 100 0 
3 61 52 322 0 
3 239 282 240 0 
3 5 79 51 0 
3 51 74 153 0 
3 76 82 83 0 
3 64 79 100 0 
3 81 54 62 0 
3 119 233 103 0 
3 67 71 62 0 
3 51 66 74 0 
3 79 66 51 0 
3 69 322 52 0 
3 76 70 68 0 
3 110 74 66 0 
3 85 110 66 0 
3 59 97 71 0 
3 82 76 68 0 
3 63 66 79 0 
3 89 99 123 0 
3 45 79 64 0 
3 45 63 79 0 
3 66 63 85 0 
3 72 68 65 0 
3 43 45 64 0 
3 78 7 55 0 
3 63 94 85 0 
3 47 46 49 0 
3 240 288 235 0 
3 60 346 67 0 
3 318 34 86 0 
3 20 63 45 0 
3 84 78 83 0 
3 173 187 0 0 
3 77 84 83 0 
3 270 350 225 0 
3 73 72 69 0 
3 20 94 63 0 
3 71 97 13 0 
3 52 61 135 0 
3 224 105 222 0 
3 88 92 91 0 
3 4 77 75 0 
3 323 337 327 0 
3 67 62 54 0 
3 275 279 353 0 
3 67 59 71 0 
3 346 217 59 0 
3 92 117 90 0 
3 6 72 50 0 
3 48 49 142 0 
3 46 50 56 0 
3 53 134 103 0 
3 53 2 134 0 
3 89 123 18 0 
3 34 351 347 0 
3 181 231 223 0 
3 72 73 82 0 
3 47 49 48 0 
3 83 82 73 0 
3 83 39 70 0 
3 75 77 73 0 
3 77 83 73 0 
3 72 6 69 0 
3 72 56 50 0 
3 318 350 189 0 
3 76 83 70 0 
3 278 193 189 0 
3 62 2 53 0 
3 11 65 68 0 
3 69 75 73 0 
3 81 62 53 0 
3 346 59 67 0 
3 72 65 56 0 
3 72 82 68 0 
3 83 78 39 0 
3 78 84 18 0 
3 62 13 2 0 
3 229 92 88 0 
3 244 97 59 0 
3 78 55 39 0 
3 71 13 62 0 
3 121 137 86 0 
3 86 347 121 0 
3 347 86 34 0 
3 241 177 249 0 
3 101 285 102 0 
3 171 180 149 0 
3 114 121 347 0 
3 134 21 85 0 
3 282 105 102 0 
3 106 125 173 0 
3 101 93 87 0 
3 156 106 0 0 
3 101 102 256 0 
3 184 236 235 0 
3 253 87 245 0 
3 228 53 103 0 
3 350 40 225 0 
3 348 40 350 0 
3 193 210 187 0 
3 210 193 176 0 
3 211 112 95 0 
3 98 152 156 0 
3 253 101 87 0 
3 64 100 301 0 
3 102 105 224 0 
3 102 224 256 0 
3 86 137 348 0 
3 234 226 221 0 
3 251 253 245 0 
3 342 147 337 0 
3 245 87 296 0 
3 296 297 295 0 
3 335 337 323 0 
3 96 101 253 0 
3 262 274 273 0 
3 205 211 208 0 
3 54 81 352 0 
3 124 78 18 0 
3 4 104 77 0 
3 228 103 233 0 
3 101 256 93 0 
3 77 18 84 0 
3 347 188 107 0 
3 210 0 187 0 
3 103 85 94 0 
3 322 91 61 0 
3 312 91 322 0 
3 91 90 61 0 
3 173 202 187 0 
3 91 92 90 0 
3 103 134 85 0 
3 104 18 77 0 
3 172 171 140 0 
3 312 88 91 0 
3 316 304 248 0 
3 127 106 36 0 
3 189 350 270 0 
3 135 61 90 0 
3 117 128 90 0 
3 128 4 135 0 
3 90 128 135 0 
3 35 26 30 0 
3 230 128 117 0 
3 202 109 194 0 
3 151 287 276 0 
3 28 108 127 0 
3 202 125 108 0 
3 98 210 176 0 
3 222 104 128 0 
3 116 114 107 0 
3 121 114 191 0 
3 121 191 197 0 
3 219 126 23 0 
3 119 122 126 0 
3 21 108 28 0 
3 113 126 219 0 
3 1 127 74 0 
3 126 122 23 0 
3 1 74 110 0 
3 122 20 111 0 
3 119 94 20 0 
3 19 26 29 0 
3 116 191 114 0 
3 113 219 233 0 
3 12 44 55 0 
3 162 131 24 0 
3 109 225 40 0 
3 24 134 2 0 
3 85 1 110 0 
3 3 166 40 0 
3 97 190 13 0 
3 108 24 131 0 
3 40 166 194 0 
3 1 28 127 0 
3 234 232 184 0 
3 127 36 74 0 
3 127 125 106 0 
3 207 118 211 0 
3 204 205 303 0 
3 211 118 160 0 
3 10 154 144 0 
3 348 318 86 0 
3 108 21 24 0 
3 123 124 18 0 
3 261 266 262 0 
3 202 108 109 0 
3 108 125 127 0 
3 119 20 122 0 
3 7 78 124 0 
3 123 115 124 0 
3 197 3 137 0 
3 99 115 123 0 
3 115 136 124 0 
3 85 28 1 0 
3 203 115 99 0 
3 346 60 349 0 
3 275 81 57 0 
3 211 95 208 0 
3 136 7 124 0 
3 325 140 171 0 
3 23 122 111 0 
3 95 112 263 0 
3 139 23 16 0 
3 42 35 58 0 
3 209 205 208 0 
3 115 130 136 0 
3 3 348 137 0 
3 323 327 309 0 
3 22 55 7 0 
3 136 133 7 0 
3 133 22 7 0 
3 133 136 130 0 
3 119 103 94 0 
3 255 120 116 0 
3 171 144 154 0 
3 146 339 338 0 
3 141 142 147 0 
3 161 168 150 0 
3 57 53 228 0 
3 26 42 29 0 
3 150 168 8 0 
3 255 107 220 0 
3 48 142 141 0 
3 19 163 26 0 
3 166 145 195 0 
3 146 144 172 0 
3 329 269 334 0 
3 167 19 155 0 
3 353 54 352 0 
3 142 8 147 0 
3 8 168 17 0 
3 158 153 36 0 
3 42 26 35 0 
3 351 188 347 0 
3 333 157 332 0 
3 333 332 341 0 
3 27 157 333 0 
3 189 193 201 0 
3 161 19 168 0 
3 165 158 156 0 
3 155 19 29 0 
3 153 74 36 0 
3 168 167 17 0 
3 246 319 148 0 
3 173 0 106 0 
3 148 174 246 0 
3 29 42 37 0 
3 207 157 118 0 
3 146 172 339 0 
3 204 157 207 0 
3 164 284 242 0 
3 158 106 156 0 
3 157 343 118 0 
3 151 129 200 0 
3 142 150 8 0 
3 336 180 154 0 
3 171 154 180 0 
3 168 19 167 0 
3 157 169 343 0 
3 173 125 202 0 
3 199 276 272 0 
3 228 265 225 0 
3 158 36 106 0 
3 234 200 280 0 
3 152 165 156 0 
3 175 180 334 0 
3 188 179 220 0 
3 179 120 255 0 
3 170 188 351 0 
3 170 179 188 0 
3 196 194 166 0 
3 179 191 120 0 
3 170 195 179 0 
3 179 195 191 0 
3 210 98 156 0 
3 195 170 351 0 
3 292 243 254 0 
3 340 195 351 0 
3 178 175 334 0 
3 157 204 332 0 
3 204 207 205 0 
3 346 349 353 0 
3 318 195 340 0 
3 195 197 191 0 
3 182 199 272 0 
3 185 182 272 0 
3 199 273 276 0 
3 149 180 175 0 
3 182 273 199 0 
3 15 151 276 0 
3 156 0 210 0 
3 213 182 185 0 
3 276 273 15 0 
3 294 177 218 0 
3 249 177 294 0 
3 177 183 182 0 
3 182 183 273 0 
3 262 273 183 0 
3 148 149 175 0 
3 212 203 239 0 
3 306 249 294 0 
3 223 280 129 0 
3 318 196 195 0 
3 216 212 231 0 
3 195 196 166 0 
3 318 189 196 0 
3 184 235 234 0 
3 190 97 279 0 
3 206 208 284 0 
3 208 95 284 0 
3 234 221 200 0 
3 231 212 232 0 
3 174 259 249 0 
3 259 178 261 0 
3 189 201 196 0 
3 201 194 196 0 
3 281 209 206 0 
3 177 182 213 0 
3 178 269 261 0 
3 202 194 201 0 
3 162 190 258 0 
3 246 174 308 0 
3 209 208 206 0 
3 187 202 201 0 
3 131 162 258 0 
3 178 259 174 0 
3 178 334 269 0 
3 151 15 129 0 
3 175 178 174 0 
3 234 235 226 0 
3 282 99 105 0 
3 214 256 224 0 
3 235 288 226 0 
3 240 235 239 0 
3 139 216 231 0 
3 291 218 213 0 
3 99 282 239 0 
3 216 203 212 0 
3 239 236 212 0 
3 217 277 244 0 
3 214 224 222 0 
3 229 230 92 0 
3 203 216 130 0 
3 143 109 131 0 
3 193 278 263 0 
3 258 143 131 0 
3 177 213 218 0 
3 101 264 285 0 
3 232 280 223 0 
3 232 223 231 0 
3 353 349 54 0 
3 128 230 222 0 
3 198 186 242 0 
3 186 227 242 0 
3 254 252 292 0 
3 233 265 228 0 
3 265 219 186 0 
3 181 223 215 0 
3 233 219 265 0 
3 227 237 242 0 
3 243 291 213 0 
3 200 221 151 0 
3 115 203 130 0 
3 23 181 219 0 
3 219 227 186 0 
3 215 237 227 0 
3 97 244 279 0 
3 238 216 139 0 
3 96 264 101 0 
3 233 126 113 0 
3 219 181 227 0 
3 308 174 249 0 
3 233 119 126 0 
3 4 128 104 0 
3 203 99 239 0 
3 227 181 215 0 
3 223 129 215 0 
3 195 145 197 0 
3 222 230 214 0 
3 181 139 231 0 
3 229 214 230 0 
3 23 139 181 0 
3 162 13 190 0 
3 57 258 275 0 
3 250 256 229 0 
3 206 192 286 0 
3 256 214 229 0 
3 270 265 186 0 
3 262 266 274 0 
3 269 266 261 0 
3 248 93 250 0 
3 250 93 256 0 
3 291 243 298 0 
3 278 189 270 0 
3 95 278 198 0 
3 281 286 269 0 
3 284 95 198 0 
3 198 278 270 0 
3 279 258 190 0 
3 269 286 266 0 
3 192 247 286 0 
3 274 15 273 0 
3 285 240 282 0 
3 247 274 266 0 
3 263 278 95 0 
3 281 206 286 0 
3 248 296 87 0 
3 264 240 285 0 
3 164 237 129 0 
3 15 164 129 0 
3 228 225 143 0 
3 249 259 241 0 
3 284 192 206 0 
3 266 286 247 0 
3 259 262 241 0 
3 251 96 253 0 
3 247 15 274 0 
3 235 236 239 0 
3 96 260 264 0 
3 296 290 245 0 
3 271 240 264 0 
3 129 237 215 0 
3 290 251 245 0 
3 251 260 96 0 
3 260 271 264 0 
3 184 212 236 0 
3 290 289 251 0 
3 288 240 271 0 
3 242 284 198 0 
3 251 252 260 0 
3 184 232 212 0 
3 289 252 251 0 
3 268 271 260 0 
3 187 201 193 0 
3 271 283 288 0 
3 259 261 262 0 
3 268 283 271 0 
3 164 15 247 0 
3 143 258 228 0 
3 254 260 252 0 
3 260 254 257 0 
3 260 257 268 0 
3 288 283 226 0 
3 280 232 234 0 
3 337 147 344 0 
3 268 257 272 0 
3 265 270 225 0 
3 268 267 283 0 
3 283 221 226 0 
3 272 267 268 0 
3 88 250 229 0 
3 213 185 254 0 
3 179 255 220 0 
3 254 185 257 0 
3 192 164 247 0 
3 277 217 346 0 
3 283 287 221 0 
3 87 93 248 0 
3 284 164 192 0 
3 292 293 300 0 
3 276 283 267 0 
3 283 276 287 0 
3 185 272 257 0 
3 164 242 237 0 
3 277 346 353 0 
3 258 279 275 0 
3 243 213 254 0 
3 272 276 267 0 
3 306 308 249 0 
3 287 151 221 0 
3 198 270 186 0 
3 296 302 297 0 
3 244 277 353 0 
3 320 328 326 0 
3 47 48 141 0 
3 248 304 296 0 
3 46 331 328 0 
3 326 328 331 0 
3 321 320 315 0 
3 4 52 135 0 
3 322 6 316 0 
3 324 317 310 0 
3 50 328 320 0 
3 112 160 176 0 
3 176 160 98 0 
3 322 69 6 0 
3 340 34 318 0 
3 312 322 316 0 
3 344 146 338 0 
3 345 152 98 0 
3 46 47 331 0 
3 160 345 98 0 
3 315 324 310 0 
3 297 310 300 0 
3 160 343 345 0 
3 295 297 293 0 
3 289 295 293 0 
3 316 6 321 0 
3 345 305 152 0 
3 165 152 305 0 
3 315 310 302 0 
3 312 316 248 0 
3 317 335 323 0 
3 342 141 147 0 
3 343 169 345 0 
3 345 165 305 0 
3 303 332 204 0 
3 47 141 342 0 
3 321 50 320 0 
3 301 165 345 0 
3 169 301 345 0 
3 281 329 303 0 
3 320 326 315 0 
3 329 336 303 0 
3 336 341 303 0 
3 303 341 332 0 
3 297 300 293 0 
3 64 301 169 0 
3 301 100 165 0 
3 304 307 296 0 
3 313 246 308 0 
3 290 295 289 0 
3 306 313 308 0 
3 281 269 329 0 
3 313 319 246 0 
3 304 321 307 0 
3 314 313 306 0 
3 148 175 174 0 
3 314 319 313 0 
3 329 334 336 0 
3 154 333 341 0 
3 316 321 304 0 
3 292 252 293 0 
3 319 325 148 0 
3 296 295 290 0 
3 325 338 140 0 
3 140 338 339 0 
3 315 326 324 0 
3 294 218 291 0 
3 294 299 306 0 
3 154 159 333 0 
3 299 314 306 0 
3 289 293 252 0 
3 298 294 291 0 
3 330 325 319 0 
3 6 50 321 0 
3 298 299 294 0 
3 336 154 341 0 
3 330 338 325 0 
3 324 335 317 0 
3 310 317 311 0 
3 302 310 297 0 
3 311 299 298 0 
3 50 46 328 0 
3 296 307 302 0 
3 344 338 330 0 
3 243 292 298 0 
3 300 311 298 0 
3 337 344 330 0 
3 292 300 298 0 
3 327 337 330 0 
3 310 311 300 0 
