ply
format ascii 1.0
element vertex 300
property float x
property float y
property float z
end_header

150.0 0.0 0.0
146.72213745117188 31.186758041381836 0.0
137.0318145751953 61.010501861572266 0.0
121.35254669189453 88.16778564453125 0.0
100.36958312988281 111.47173309326172 0.0
74.99999237060547 129.90380859375 0.0
46.35254669189453 142.65847778320312 0.0
15.6792631149292 149.17828369140625 0.0
-15.67929458618164 149.17828369140625 0.0
-46.35257339477539 142.65847778320312 0.0
-75.00000762939453 129.90380859375 0.0
-100.3696060180664 111.47171020507812 0.0
-121.35254669189453 88.16777801513672 0.0
-137.03182983398438 61.0104866027832 0.0
-146.72213745117188 31.18674087524414 0.0
-150.0 -1.3113416571286507e-05 0.0
-146.7221221923828 -31.18680191040039 0.0
-137.0318145751953 -61.0105094909668 0.0
-121.3525161743164 -88.16783142089844 0.0
-100.36957550048828 -111.47173309326172 0.0
-74.99998474121094 -129.90382385253906 0.0
-46.352561950683594 -142.65847778320312 0.0
-15.679250717163086 -149.17828369140625 0.0
15.679253578186035 -149.17828369140625 0.0
46.352569580078125 -142.65847778320312 0.0
74.99998474121094 -129.90382385253906 0.0
100.36961364746094 -111.4717025756836 0.0
121.3525390625 -88.16779327392578 0.0
137.03182983398438 -61.010475158691406 0.0
146.72213745117188 -31.186763763427734 0.0
150.0 0.0 17.0
146.72213745117188 31.186758041381836 17.0
137.0318145751953 61.010501861572266 17.0
121.35254669189453 88.16778564453125 17.0
100.36958312988281 111.47173309326172 17.0
74.99999237060547 129.90380859375 17.0
46.35254669189453 142.65847778320312 17.0
15.6792631149292 149.17828369140625 17.0
-15.67929458618164 149.17828369140625 17.0
-46.35257339477539 142.65847778320312 17.0
-75.00000762939453 129.90380859375 17.0
-100.3696060180664 111.47171020507812 17.0
-121.35254669189453 88.16777801513672 17.0
-137.03182983398438 61.0104866027832 17.0
-146.72213745117188 31.18674087524414 17.0
-150.0 -1.3113416571286507e-05 17.0
-146.7221221923828 -31.18680191040039 17.0
-137.0318145751953 -61.0105094909668 17.0
-121.3525161743164 -88.16783142089844 17.0
-100.36957550048828 -111.47173309326172 17.0
-74.99998474121094 -129.90382385253906 17.0
-46.352561950683594 -142.65847778320312 17.0
-15.679250717163086 -149.17828369140625 17.0
15.679253578186035 -149.17828369140625 17.0
46.352569580078125 -142.65847778320312 17.0
74.99998474121094 -129.90382385253906 17.0
100.36961364746094 -111.4717025756836 17.0
121.3525390625 -88.16779327392578 17.0
137.03182983398438 -61.010475158691406 17.0
146.72213745117188 -31.186763763427734 17.0
150.0 0.0 34.0
146.72213745117188 31.186758041381836 34.0
137.0318145751953 61.010501861572266 34.0
121.35254669189453 88.16778564453125 34.0
100.36958312988281 111.47173309326172 34.0
74.99999237060547 129.90380859375 34.0
46.35254669189453 142.65847778320312 34.0
15.6792631149292 149.17828369140625 34.0
-15.67929458618164 149.17828369140625 34.0
-46.35257339477539 142.65847778320312 34.0
-75.00000762939453 129.90380859375 34.0
-100.3696060180664 111.47171020507812 34.0
-121.35254669189453 88.16777801513672 34.0
-137.03182983398438 61.0104866027832 34.0
-146.72213745117188 31.18674087524414 34.0
-150.0 -1.3113416571286507e-05 34.0
-146.7221221923828 -31.18680191040039 34.0
-137.0318145751953 -61.0105094909668 34.0
-121.3525161743164 -88.16783142089844 34.0
-100.36957550048828 -111.47173309326172 34.0
-74.99998474121094 -129.90382385253906 34.0
-46.352561950683594 -142.65847778320312 34.0
-15.679250717163086 -149.17828369140625 34.0
15.679253578186035 -149.17828369140625 34.0
46.352569580078125 -142.65847778320312 34.0
74.99998474121094 -129.90382385253906 34.0
100.36961364746094 -111.4717025756836 34.0
121.3525390625 -88.16779327392578 34.0
137.03182983398438 -61.010475158691406 34.0
146.72213745117188 -31.186763763427734 34.0
150.0 0.0 51.000003814697266
146.72213745117188 31.186758041381836 51.000003814697266
137.0318145751953 61.010501861572266 51.000003814697266
121.35254669189453 88.16778564453125 51.000003814697266
100.36958312988281 111.47173309326172 51.000003814697266
74.99999237060547 129.90380859375 51.000003814697266
46.35254669189453 142.65847778320312 51.000003814697266
15.6792631149292 149.17828369140625 51.000003814697266
-15.67929458618164 149.17828369140625 51.000003814697266
-46.35257339477539 142.65847778320312 51.000003814697266
-75.00000762939453 129.90380859375 51.000003814697266
-100.3696060180664 111.47171020507812 51.000003814697266
-121.35254669189453 88.16777801513672 51.000003814697266
-137.03182983398438 61.0104866027832 51.000003814697266
-146.72213745117188 31.18674087524414 51.000003814697266
-150.0 -1.3113416571286507e-05 51.000003814697266
-146.7221221923828 -31.18680191040039 51.000003814697266
-137.0318145751953 -61.0105094909668 51.000003814697266
-121.3525161743164 -88.16783142089844 51.000003814697266
-100.36957550048828 -111.47173309326172 51.000003814697266
-74.99998474121094 -129.90382385253906 51.000003814697266
-46.352561950683594 -142.65847778320312 51.000003814697266
-15.679250717163086 -149.17828369140625 51.000003814697266
15.679253578186035 -149.17828369140625 51.000003814697266
46.352569580078125 -142.65847778320312 51.000003814697266
74.99998474121094 -129.90382385253906 51.000003814697266
100.36961364746094 -111.4717025756836 51.000003814697266
121.3525390625 -88.16779327392578 51.000003814697266
137.03182983398438 -61.010475158691406 51.000003814697266
146.72213745117188 -31.186763763427734 51.000003814697266
150.0 0.0 68.0
146.72213745117188 31.186758041381836 68.0
137.0318145751953 61.010501861572266 68.0
121.35254669189453 88.16778564453125 68.0
100.36958312988281 111.47173309326172 68.0
74.99999237060547 129.90380859375 68.0
46.35254669189453 142.65847778320312 68.0
15.6792631149292 149.17828369140625 68.0
-15.67929458618164 149.17828369140625 68.0
-46.35257339477539 142.65847778320312 68.0
-75.00000762939453 129.90380859375 68.0
-100.3696060180664 111.47171020507812 68.0
-121.35254669189453 88.16777801513672 68.0
-137.03182983398438 61.0104866027832 68.0
-146.72213745117188 31.18674087524414 68.0
-150.0 -1.3113416571286507e-05 68.0
-146.7221221923828 -31.18680191040039 68.0
-137.0318145751953 -61.0105094909668 68.0
-121.3525161743164 -88.16783142089844 68.0
-100.36957550048828 -111.47173309326172 68.0
-74.99998474121094 -129.90382385253906 68.0
-46.352561950683594 -142.65847778320312 68.0
-15.679250717163086 -149.17828369140625 68.0
15.679253578186035 -149.17828369140625 68.0
46.352569580078125 -142.65847778320312 68.0
74.99998474121094 -129.90382385253906 68.0
100.36961364746094 -111.4717025756836 68.0
121.3525390625 -88.16779327392578 68.0
137.03182983398438 -61.010475158691406 68.0
146.72213745117188 -31.186763763427734 68.0
150.0 0.0 85.0
146.72213745117188 31.186758041381836 85.0
137.0318145751953 61.010501861572266 85.0
121.35254669189453 88.16778564453125 85.0
100.36958312988281 111.47173309326172 85.0
74.99999237060547 129.90380859375 85.0
46.35254669189453 142.65847778320312 85.0
15.6792631149292 149.17828369140625 85.0
-15.67929458618164 149.17828369140625 85.0
-46.35257339477539 142.65847778320312 85.0
-75.00000762939453 129.90380859375 85.0
-100.3696060180664 111.47171020507812 85.0
-121.35254669189453 88.16777801513672 85.0
-137.03182983398438 61.0104866027832 85.0
-146.72213745117188 31.18674087524414 85.0
-150.0 -1.3113416571286507e-05 85.0
-146.7221221923828 -31.18680191040039 85.0
-137.0318145751953 -61.0105094909668 85.0
-121.3525161743164 -88.16783142089844 85.0
-100.36957550048828 -111.47173309326172 85.0
-74.99998474121094 -129.90382385253906 85.0
-46.352561950683594 -142.65847778320312 85.0
-15.679250717163086 -149.17828369140625 85.0
15.679253578186035 -149.17828369140625 85.0
46.352569580078125 -142.65847778320312 85.0
74.99998474121094 -129.90382385253906 85.0
100.36961364746094 -111.4717025756836 85.0
121.3525390625 -88.16779327392578 85.0
137.03182983398438 -61.010475158691406 85.0
146.72213745117188 -31.186763763427734 85.0
150.0 0.0 102.00000762939453
146.72213745117188 31.186758041381836 102.00000762939453
137.0318145751953 61.010501861572266 102.00000762939453
121.35254669189453 88.16778564453125 102.00000762939453
100.36958312988281 111.47173309326172 102.00000762939453
74.99999237060547 129.90380859375 102.00000762939453
46.35254669189453 142.65847778320312 102.00000762939453
15.6792631149292 149.17828369140625 102.00000762939453
-15.67929458618164 149.17828369140625 102.00000762939453
-46.35257339477539 142.65847778320312 102.00000762939453
-75.00000762939453 129.90380859375 102.00000762939453
-100.3696060180664 111.47171020507812 102.00000762939453
-121.35254669189453 88.16777801513672 102.00000762939453
-137.03182983398438 61.0104866027832 102.00000762939453
-146.72213745117188 31.18674087524414 102.00000762939453
-150.0 -1.3113416571286507e-05 102.00000762939453
-146.7221221923828 -31.18680191040039 102.00000762939453
-137.0318145751953 -61.0105094909668 102.00000762939453
-121.3525161743164 -88.16783142089844 102.00000762939453
-100.36957550048828 -111.47173309326172 102.00000762939453
-74.99998474121094 -129.90382385253906 102.00000762939453
-46.352561950683594 -142.65847778320312 102.00000762939453
-15.679250717163086 -149.17828369140625 102.00000762939453
15.679253578186035 -149.17828369140625 102.00000762939453
46.352569580078125 -142.65847778320312 102.00000762939453
74.99998474121094 -129.90382385253906 102.00000762939453
100.36961364746094 -111.4717025756836 102.00000762939453
121.3525390625 -88.16779327392578 102.00000762939453
137.03182983398438 -61.010475158691406 102.00000762939453
146.72213745117188 -31.186763763427734 102.00000762939453
150.0 0.0 119.0
146.72213745117188 31.186758041381836 119.0
137.0318145751953 61.010501861572266 119.0
121.35254669189453 88.16778564453125 119.0
100.36958312988281 111.47173309326172 119.0
74.99999237060547 129.90380859375 119.0
46.35254669189453 142.65847778320312 119.0
15.6792631149292 149.17828369140625 119.0
-15.67929458618164 149.17828369140625 119.0
-46.35257339477539 142.65847778320312 119.0
-75.00000762939453 129.90380859375 119.0
-100.3696060180664 111.47171020507812 119.0
-121.35254669189453 88.16777801513672 119.0
-137.03182983398438 61.0104866027832 119.0
-146.72213745117188 31.18674087524414 119.0
-150.0 -1.3113416571286507e-05 119.0
-146.7221221923828 -31.18680191040039 119.0
-137.0318145751953 -61.0105094909668 119.0
-121.3525161743164 -88.16783142089844 119.0
-100.36957550048828 -111.47173309326172 119.0
-74.99998474121094 -129.90382385253906 119.0
-46.352561950683594 -142.65847778320312 119.0
-15.679250717163086 -149.17828369140625 119.0
15.679253578186035 -149.17828369140625 119.0
46.352569580078125 -142.65847778320312 119.0
74.99998474121094 -129.90382385253906 119.0
100.36961364746094 -111.4717025756836 119.0
121.3525390625 -88.16779327392578 119.0
137.03182983398438 -61.010475158691406 119.0
146.72213745117188 -31.186763763427734 119.0
150.0 0.0 136.0
146.72213745117188 31.186758041381836 136.0
137.0318145751953 61.010501861572266 136.0
121.35254669189453 88.16778564453125 136.0
100.36958312988281 111.47173309326172 136.0
74.99999237060547 129.90380859375 136.0
46.35254669189453 142.65847778320312 136.0
15.6792631149292 149.17828369140625 136.0
-15.67929458618164 149.17828369140625 136.0
-46.35257339477539 142.65847778320312 136.0
-75.00000762939453 129.90380859375 136.0
-100.3696060180664 111.47171020507812 136.0
-121.35254669189453 88.16777801513672 136.0
-137.03182983398438 61.0104866027832 136.0
-146.72213745117188 31.18674087524414 136.0
-150.0 -1.3113416571286507e-05 136.0
-146.7221221923828 -31.18680191040039 136.0
-137.0318145751953 -61.0105094909668 136.0
-121.3525161743164 -88.16783142089844 136.0
-100.36957550048828 -111.47173309326172 136.0
-74.99998474121094 -129.90382385253906 136.0
-46.352561950683594 -142.65847778320312 136.0
-15.679250717163086 -149.17828369140625 136.0
15.679253578186035 -149.17828369140625 136.0
46.352569580078125 -142.65847778320312 136.0
74.99998474121094 -129.90382385253906 136.0
100.36961364746094 -111.4717025756836 136.0
121.3525390625 -88.16779327392578 136.0
137.03182983398438 -61.010475158691406 136.0
146.72213745117188 -31.186763763427734 136.0
150.0 0.0 153.0
146.72213745117188 31.186758041381836 153.0
137.0318145751953 61.010501861572266 153.0
121.35254669189453 88.16778564453125 153.0
100.36958312988281 111.47173309326172 153.0
74.99999237060547 129.90380859375 153.0
46.35254669189453 142.65847778320312 153.0
15.6792631149292 149.17828369140625 153.0
-15.67929458618164 149.17828369140625 153.0
-46.35257339477539 142.65847778320312 153.0
-75.00000762939453 129.90380859375 153.0
-100.3696060180664 111.47171020507812 153.0
-121.35254669189453 88.16777801513672 153.0
-137.03182983398438 61.0104866027832 153.0
-146.72213745117188 31.18674087524414 153.0
-150.0 -1.3113416571286507e-05 153.0
-146.7221221923828 -31.18680191040039 153.0
-137.0318145751953 -61.0105094909668 153.0
-121.3525161743164 -88.16783142089844 153.0
-100.36957550048828 -111.47173309326172 153.0
-74.99998474121094 -129.90382385253906 153.0
-46.352561950683594 -142.65847778320312 153.0
-15.679250717163086 -149.17828369140625 153.0
15.679253578186035 -149.17828369140625 153.0
46.352569580078125 -142.65847778320312 153.0
74.99998474121094 -129.90382385253906 153.0
100.36961364746094 -111.4717025756836 153.0
121.3525390625 -88.16779327392578 153.0
137.03182983398438 -61.010475158691406 153.0
146.72213745117188 -31.186763763427734 153.0
